<?xml version="1.0" encoding="UTF-8" standalone="no"?>
<svg width="617px" height="641px" viewBox="0 0 617 641" version="1.1" xmlns="http://www.w3.org/2000/svg" xmlns:xlink="http://www.w3.org/1999/xlink" xmlns:sketch="http://www.bohemiancoding.com/sketch/ns">
    <title>Slice 3</title>
    <description>Created with Sketch (http://www.bohemiancoding.com/sketch)</description>
    <defs>
        <path d="M77.5758124,-9.78824089 C120.886286,-21.8927198 181.120769,-32.766371 258.127578,-32.9967286 C332.391514,-33.2177293 392.602031,-22.2091157 436.821367,-9.76651091 C452.318558,-5.40585248 456.357094,-3.06781408 456.357094,-3.06781408 C462.457455,-0.484087521 463.007818,4.71435154 457.441954,8.29694182 C457.441954,8.29694182 453.081984,12.4190661 440.650689,16.5082473 C383.243698,35.3918441 321.789669,48 260.030357,48 C197.776125,48 135.199122,34.6693589 76.616973,14.8928487 C68.662419,12.2075038 61.8730742,7.68401622 61.8730742,7.68401622 C56.164037,4.32967087 56.3408839,-0.80981979 62.305042,-3.66778324 C62.305042,-3.66778324 68.629105,-7.28780085 77.5758124,-9.78824089 Z M-17.8637881,36.4051374 C-11.6417084,24.6727498 -2.83706321,24.2179026 3.34754906,24.2179027 C14.0752636,24.2179026 19.1010569,26.4559078 31.6630868,31.9689702 C102.528295,63.0693825 181.535895,86.1270615 260.030357,86.1270615 C340.268057,86.1270615 419.990473,62.9729635 490.992097,31.7739871 C502.517159,26.709735 505.799606,25.858135 515.630661,25.858135 C522.112167,25.858135 531.607255,25.9918649 538.638396,39.0821883 C578.074652,112.503175 667.062958,343.288681 351.710105,521.13024 C300.134661,550.215856 258.709702,587 258.709702,587 C258.709702,587 213.7938,547.635957 163.240263,519.483496 C-148.676979,345.781296 -56.6274168,109.498052 -17.8637881,36.4051374 Z M-17.8637881,36.4051374" id="path-1" stroke="none" fill-rule="evenodd" transform="translate(259.928208, 277.000000) rotate(-237.000000) translate(-259.928208, -277.000000) "></path>
        <mask id="mask-2" fill="none">
            <use xlink:href="#path-1"></use>
        </mask>
    </defs>
    <g id="Page 1" stroke="none" stroke-width="0" fill="none" fill-rule="evenodd">
        <use id="Line logo" xlink:href="#path-1" fill="#28BDF4"></use>
    </g>
</svg>